<svg id="SvgjsSvg1006" width="288" height="288" xmlns="http://www.w3.org/2000/svg" version="1.1" xmlns:xlink="http://www.w3.org/1999/xlink" xmlns:svgjs="http://svgjs.com/svgjs"><defs id="SvgjsDefs1007"></defs><g id="SvgjsG1008"><svg xmlns="http://www.w3.org/2000/svg" viewBox="0 0 105.81 101.6" width="288" height="288"><path d="M51.5.6C47.2 1.7 43.9 3.4 43 5s-1.3 1.6-5.6-.6C32 1.7 31.1 1.6 25.5 3.1 20.9 4.4 15 9.9 15 12.9c0 1.5-.6 2.1-2.2 2.1C4 15-3 29.1 2.7 35.2c1.9 2 2 2.5.7 4.2A9.2 9.2 0 002 44c0 5.9 8.9 14.5 14.3 13.7 2.2-.3 2.7 0 2.7 1.8 0 3.1 3.3 6.9 7.5 8.9 4.9 2.4 12.9 2.4 15.4.2 1.9-1.7 2.1-1.7 4.8 1.4 2.4 2.6 3.9 3.3 7.9 3.7a30.14 30.14 0 009.1-.6C68.3 71.8 74 67.6 74 65.4c0-1.7.5-1.7 3.1-.3 3.4 1.8 9.7.1 14-3.8C94.3 58.4 95 57.1 95 54c0-3.4.3-3.9 2.9-4.5 8.6-1.9 11.5-15.6 5-23.9-1.1-1.4-3-2.6-4.1-2.6-1.8 0-2-.4-1.4-3.1.9-4.7-1.6-9.4-6.3-11.8-5.3-2.8-14-2.8-17.2-.2-2.3 1.9-2.4 1.9-4.1-1a14.2 14.2 0 00-4.5-4.3C62.1 1 54.5-.1 51.5.6zM16.2 88.2A4.67 4.67 0 0015 91.1a2.86 2.86 0 01-1 2.4c-1.6 1-1.1 4.5.8 5.2a5.58 5.58 0 012.5 2c1.1 1.8 6.3 1.7 7.1-.2A2.78 2.78 0 0126.9 99c2.8 0 3.2-1.1 2.4-6.5-.6-5-2.4-6.5-5.4-4.7-1.1.7-2 .8-2.4.2C20.7 86.6 17.6 86.8 16.2 88.2z" transform="translate(-.64 -.39)" fill="#3870ff" class="svgShape color000000-0 selectable"></path></svg></g></svg>